<svg role="img" viewBox="0 0 24 24" xmlns="http://www.w3.org/2000/svg" id="Mikrotik--Streamline-Simple-Icons" height="24" width="24">
  <desc>
    Mikrotik Streamline Icon: https://streamlinehq.com
  </desc>
  <title>Mikrotik</title>
  <path d="M23.041 6.188a1.404 1.404 0 0 0 -0.218 -0.36c-0.24 -0.296 -0.634 -0.586 -1.14 -0.864l-4.052 -2.22L13.576 0.519C13.074 0.243 12.61 0.065 12.22 0.013A1.772 1.772 0 0 0 12 0c-0.432 0 -0.974 0.192 -1.576 0.52L6.37 2.74 2.317 4.96c-0.504 0.279 -0.9 0.569 -1.14 0.867a1.59 1.59 0 0 0 -0.122 0.17 1.654 1.654 0 0 0 -0.096 0.19c-0.15 0.348 -0.22 0.816 -0.22 1.368v8.887c0 0.66 0.1 1.2 0.316 1.558 0.216 0.356 0.66 0.706 1.262 1.036l4.054 2.22 4.053 2.223c0.504 0.276 0.966 0.456 1.36 0.506 0.145 0.02 0.291 0.02 0.436 0 0.39 -0.05 0.852 -0.228 1.356 -0.506l8.107 -4.443c0.6 -0.33 1.046 -0.68 1.262 -1.036 0.036 -0.06 0.068 -0.123 0.096 -0.188 0.15 -0.348 0.22 -0.818 0.22 -1.37V7.556c0 -0.552 -0.07 -1.02 -0.22 -1.368zM7.233 16.618c0 0.2 -0.218 0.33 -0.396 0.233l-1.45 -0.796a1.066 1.066 0 0 1 -0.552 -0.934v-4.296c0 -0.2 0.216 -0.33 0.394 -0.235l1.728 0.947a0.53 0.53 0 0 1 0.276 0.468v4.612zm11.934 -1.497c0 0.39 -0.213 0.748 -0.554 0.936l-1.45 0.794a0.266 0.266 0 0 1 -0.394 -0.234v-5.692c0 -0.2 -0.217 -0.33 -0.395 -0.232l-2.62 1.434c-0.34 0.187 -0.552 0.545 -0.552 0.934v5.646a0.532 0.532 0 0 1 -0.278 0.468l-0.41 0.224c-0.32 0.176 -0.707 0.176 -1.026 0l-0.408 -0.224a0.532 0.532 0 0 1 -0.278 -0.468v-5.646c0 -0.389 -0.212 -0.747 -0.552 -0.934L4.835 9.16v-0.28c0 -0.388 0.212 -0.746 0.552 -0.934l0.6 -0.328a1.064 1.064 0 0 1 1.022 0l4.48 2.452c0.318 0.176 0.704 0.176 1.021 0l2.07 -1.134a0.266 0.266 0 0 0 0 -0.468L9.932 5.922a0.266 0.266 0 0 1 0 -0.468l1.556 -0.852c0.32 -0.176 0.707 -0.176 1.026 0l6.1 3.34c0.342 0.188 0.554 0.547 0.553 0.936v6.243z" fill="#000000" stroke-width="1"></path>
</svg>